HIERARCHY
ROOT Hips
{
  OFFSET 40.9192 92.6879 18.85
  CHANNELS 6 Xposition Yposition Zposition Zrotation Xrotation Yrotation
  JOINT LeftUpLeg
  {
    OFFSET 8.64259 1.95398 -2.38835
    CHANNELS 3 Zrotation Xrotation Yrotation
    JOINT LeftLeg
    {
      OFFSET 43.7702 0 0
      CHANNELS 3 Zrotation Xrotation Yrotation
      JOINT LeftFoot
      {
        OFFSET 40.6238 0 0
        CHANNELS 3 Zrotation Xrotation Yrotation
        JOINT LeftToeBase
        {
          OFFSET 12.7242 0 0
          CHANNELS 3 Zrotation Xrotation Yrotation
          End Site
          {
            OFFSET 0 0 0
          }
        }
      }
    }
  }
  JOINT RightUpLeg
  {
    OFFSET -8.2249 1.95398 -2.59336
    CHANNELS 3 Zrotation Xrotation Yrotation
    JOINT RightLeg
    {
      OFFSET 43.5653 0 0
      CHANNELS 3 Zrotation Xrotation Yrotation
      JOINT RightFoot
      {
        OFFSET 40.6238 0 0
        CHANNELS 3 Zrotation Xrotation Yrotation
        JOINT RightToeBase
        {
          OFFSET 12.7242 0 0
          CHANNELS 3 Zrotation Xrotation Yrotation
          End Site
          {
            OFFSET 0 0 0
          }
        }
      }
    }
  }
  JOINT Spine
  {
    OFFSET 0.165834 0.87714 6.61349
    CHANNELS 3 Zrotation Xrotation Yrotation
    JOINT Spine1
    {
      OFFSET 7.38963 1.71661e-005 0
      CHANNELS 3 Zrotation Xrotation Yrotation
      JOINT Spine2
      {
        OFFSET 11.9445 1.14441e-005 0
        CHANNELS 3 Zrotation Xrotation Yrotation
        JOINT Spine3
        {
          OFFSET 14.7254 4.19617e-005 0
          CHANNELS 3 Zrotation Xrotation Yrotation
          JOINT Spine4
          {
            OFFSET 10.9679 0 0
            CHANNELS 3 Zrotation Xrotation Yrotation
            JOINT RightShoulder
            {
              OFFSET 2.46616 -1.6653 3.69651
              CHANNELS 3 Zrotation Xrotation Yrotation
              JOINT RightArm
              {
                OFFSET 13.0012 0 0
                CHANNELS 3 Zrotation Xrotation Yrotation
                JOINT RightForeArm
                {
                  OFFSET 28.7848 1.52588e-005 0
                  CHANNELS 3 Zrotation Xrotation Yrotation
                  JOINT RightHand
                  {
                    OFFSET 26.5688 1.52588e-005 0
                    CHANNELS 3 Zrotation Xrotation Yrotation
                    End Site
                    {
                      OFFSET 0 0 0
                    }
                  }
                }
              }
            }
            JOINT LeftShoulder
            {
              OFFSET 2.38034 -1.29275 -3.7523
              CHANNELS 3 Zrotation Xrotation Yrotation
              JOINT LeftArm
              {
                OFFSET 16.3182 6.10351e-005 0
                CHANNELS 3 Zrotation Xrotation Yrotation
                JOINT LeftForeArm
                {
                  OFFSET 27.0901 0 0
                  CHANNELS 3 Zrotation Xrotation Yrotation
                  JOINT LeftHand
                  {
                    OFFSET 24.5451 1.52588e-005 0
                    CHANNELS 3 Zrotation Xrotation Yrotation
                    End Site
                    {
                      OFFSET 0 0 0
                    }
                  }
                }
              }
            }
            JOINT Neck
            {
              OFFSET 5.0226 -0.0266342 0
              CHANNELS 3 Zrotation Xrotation Yrotation
              JOINT Head
              {
                OFFSET 6.69363 2.86102e-005 0
                CHANNELS 3 Zrotation Xrotation Yrotation
                End Site
                {
                  OFFSET 0 0 0
                }
              }
            }
          }
        }
      }
    }
  }
}
MOTION
Frames:	9
Frame Time:	0.0416667
-230.528 96.2222 -215.953 95.3483 -68.1814 95.5311 -169.063 2.32374 93.7907 -12.8499 -3.35272 -3.07436 64.8114 2.011 4.31082 31.7143 2.03284 4.6141 173.253 -1.45345 89.4076 -9.13519 -10.7797 -0.578305 67.3675 -4.4456 -2.50519 28.6761 0.22881 -3.58282 -0.246039 6.9366 -89.8831 13.0013 -0.432214 0.28662 1.33033 -0.419182 0.30536 -21.2053 -0.49838 0.143465 -1.19267 -0.498374 0.143468 98.531 -43.8583 -88.1239 29.9799 -12.3137 17.1854 5.50411 -3.10885 -89.3536 -79.1312 -0.592308 -5.09818 -92.6416 -49.4139 74.6419 -24.5658 19.924 2.76073 9.6949 14.5072 -43.5443 3.38512 0.143943 0.290314 5.00381 6.54904 -1.70761 1.68295 6.99415 4.82989 
-230.419 96.1837 -215.669 94.1192 -66.8351 94.4401 -169.107 2.70947 94.0426 -12.9382 -1.96024 -3.00843 64.667 1.89553 4.1257 31.8991 2.27745 3.16094 173.053 -1.72543 89.4607 -8.69354 -8.98088 -0.234889 68.2974 -4.912 -2.716 26.9048 0.0241896 -1.54326 -0.446225 6.92537 -89.8767 13.0254 -0.82646 0.3487 1.3546 -0.810309 0.384737 -21.1826 -0.893054 0.0841731 -1.16999 -0.893056 0.0841792 98.5126 -43.651 -88.1725 30.526 -12.3033 16.2138 5.56625 -3.2977 -88.9737 -75.5924 1.60868 -7.9753 -92.3038 -48.8074 74.9908 -25.4966 19.4972 3.39037 8.92404 11.8616 -46.5186 6.78708 0.536469 3.56096 5.68901 8.1916 -2.86575 1.31404 8.8175 5.39297 
-230.771 96.1442 -215.163 97.3953 -69.0385 96.2007 -169.096 0.116865 93.0929 -11.1363 -4.7704 -3.36457 64.2835 1.92579 3.78314 31.2015 1.75522 2.32231 173.352 -0.802445 88.643 -12.3253 -11.7758 -1.45737 68.7387 -4.81038 -2.62576 29.5218 0.202157 -2.8108 -0.297415 7.02679 -89.6912 12.8212 -0.442749 0.669658 1.15011 -0.412858 0.688492 -21.3848 -0.623551 0.505633 -1.37215 -0.623553 0.505633 97.788 -43.6161 -89.3959 30.9434 -11.1157 16.2102 10.7953 0.885229 -90.27 -66.7195 4.0362 -12.3267 -91.6907 -48.2953 75.7881 -26.2154 20.2673 4.60344 10.5196 8.7913 -53.7089 5.19755 0.529935 4.79734 5.14177 9.76364 -3.9138 2.25916 10.6239 6.45987 
-230.678 96.0457 -214.715 96.372 -69.9175 95.226 -169.348 0.188656 92.9075 -11.3479 -6.00615 -3.16827 64.6052 1.90258 4.03395 30.8395 1.5252 1.38852 173.841 -0.121195 88.8229 -13.2529 -12.4722 -1.8575 69.0127 -4.97088 -2.70719 30.3432 0.23789 -3.19707 -0.257981 6.9808 -89.6756 12.9129 -0.356646 0.69173 1.24183 -0.32587 0.706759 -21.2927 -0.548056 0.552575 -1.28004 -0.548053 0.552574 97.4655 -43.2004 -89.9846 30.7933 -5.17322 16.5644 5.8002 -5.21898 -88.3316 -62.5442 4.70489 -13.6895 -90.9747 -47.6035 76.7069 -26.6578 23.7115 5.386 12.2422 5.06078 -63.0008 6.92541 0.287131 0.419564 5.01587 10.7127 -4.22877 2.39165 11.6322 6.81376 
-230.553 95.9996 -214.346 96.2523 -71.2684 95.4602 -169.316 -0.00847302 93.0946 -11.3916 -7.34048 -3.07088 64.8836 1.86516 4.16215 31.4367 1.9868 1.71459 174.367 0.0896051 89.1478 -13.5987 -13.8094 -2.21534 68.8219 -4.93372 -2.70744 31.025 0.202348 -2.01022 -0.14715 7.01182 -89.6931 12.8503 -0.145165 0.630943 1.17916 -0.117238 0.636706 -21.355 -0.328076 0.558143 -1.34241 -0.32806 0.558148 97.4943 -42.148 -90.0507 33.9651 -3.56025 15.8898 12.9555 -2.55635 -84.9433 -53.0914 5.87264 -18.4734 -91.1271 -47.8434 76.5326 -25.4851 27.4767 5.79666 11.4767 -1.12639 -75.0264 9.39314 0.158894 -1.94943 4.52848 11.4357 -3.96027 3.48855 12.3071 6.20541 
-230.689 95.8796 -214.242 96.1846 -72.4853 95.3263 -169.26 0.308389 92.9908 -12.2337 -8.44779 -3.16829 65.1859 2.22229 4.27033 31.7392 2.19308 2.35185 174.99 0.68402 89.3966 -14.4649 -14.6505 -2.78941 68.8631 -4.97856 -2.7269 31.9137 0.216595 -1.61987 -0.135333 7.09922 -89.6617 12.6753 -0.107254 0.688911 1.00416 -0.0768319 0.692954 -21.5298 -0.309341 0.624833 -1.51713 -0.30934 0.624824 97.1179 -41.5406 -90.7697 37.6636 -2.11656 14.3894 20.6703 6.25883 -82.2716 -23.6949 1.64583 -15.052 -91.2114 -48.3227 76.5204 -23.0532 32.4202 4.22265 5.78821 -7.05215 -86.7973 6.697 0.114585 -1.84452 3.83383 12.0374 -3.73453 5.71464 12.9488 6.0653 
-230.931 95.7454 -214.369 95.0716 -74.5635 93.789 -168.767 1.49918 93.1125 -14.1976 -9.29777 -3.94679 64.8796 3.07004 5.23861 33.8058 3.9027 1.89762 175.72 2.6584 88.6047 -17.1764 -16.188 -3.65025 69.3096 -5.10601 -2.75204 32.3207 0.176956 0.0184061 -0.0751971 7.24395 -89.6004 12.3851 0.0404411 0.793188 0.713869 0.0753063 0.790628 -21.8193 -0.19981 0.76867 -1.80666 -0.199814 0.768671 96.4854 -42.3922 -91.7502 38.0094 0.93027 12.3628 17.1937 11.2829 -76.0878 -1.21875 0.122422 -12.4058 -91.6305 -48.4488 75.9174 -19.42 35.0648 -1.00686 5.91263 -9.97314 -96.3968 4.16179 0.0168494 -2.45365 3.78613 12.746 -3.13456 7.49049 13.5532 5.21753 
-231.077 95.4321 -214.959 89.1567 -76.7494 88.6531 -166.816 6.34721 93.7343 -19.9449 -8.27757 -5.76851 64.5787 3.86404 6.1221 36.2186 5.85299 1.55962 176.755 5.66225 89.9547 -18.9252 -17.4845 -4.07427 69.5005 -5.15037 -2.75764 33.0668 0.21218 0.0817208 -0.017025 7.40676 -89.6464 12.0595 0.133149 0.690238 0.388407 0.163406 0.6837 -22.1453 -0.0804457 0.698348 -2.13264 -0.0804444 0.69834 95.1858 -43.5869 -93.7734 37.0483 7.52654 7.20716 4.46926 5.54146 -66.4902 11.9836 -0.461059 -10.7774 -92.6319 -47.3765 74.115 -15.59 37.1592 -8.00702 6.48765 -12.4228 -102.072 3.36345 -0.0340534 -3.31631 4.61069 13.2465 -3.47682 8.5478 14.2089 5.73668 
-231.315 95.1649 -215.949 80.4678 -78.6216 80.7652 -163.821 13.6727 95.7151 -28.9365 -5.53212 -8.21952 61.8874 2.12658 4.52634 40.128 9.14105 3.9923 177.668 8.40444 90.6553 -19.475 -18.3873 -4.33688 69.3989 -5.09404 -2.7292 32.6994 0.176203 0.65971 -0.0179841 7.67994 -89.7179 11.5134 0.0963144 0.552274 -0.157649 0.120521 0.547492 -22.6919 -0.0741237 0.555688 -2.67923 -0.0741278 0.555674 93.7711 -43.9764 -96.0721 35.8212 8.67776 4.33144 0.591732 4.4976 -62.7185 13.4171 -0.383739 -9.27112 -93.1917 -45.048 72.592 -12.0267 38.4915 -15.755 7.22182 -13.7141 -104.212 2.12595 -0.00758839 -2.2584 5.34692 14.0012 -3.36761 11.0732 15.1796 6.65943 
